<svg id="Capa_1" data-name="Capa 1" xmlns="http://www.w3.org/2000/svg" viewBox="0 0 354.74 372.09"><defs><style>.cls-1,.cls-2{fill:none;stroke:#fafafa;stroke-miterlimit:10;}.cls-1{stroke-width:20px;}.cls-2{stroke-width:16px;}</style></defs><title>logo-svg</title><path class="cls-1" d="M376.72,197V306.75c-2,6.45-7,24.25-23.81,38-4.69,3.84-26.43,20.56-54,14.84-23.91-5-43-25.29-49.11-51.16" transform="translate(-111.46 -93.95)"/><path class="cls-1" d="M416.82,200.25L416,319.78c-4.62,13.94-15.5,39.34-40.62,57.81-42.91,31.54-104.9,29.8-146.88,0-27.25-19.35-39.44-45.72-44.53-59.37-1-3.36-21-75.65,27.34-127.34,41.08-43.92,100.48-39.79,110.94-39.06a144.28,144.28,0,0,1,39.84,8.59" transform="translate(-111.46 -93.95)"/><path class="cls-1" d="M379.32,115.87c-17.52-6-81.13-25.52-150,3.91C213.07,126.73,173,144.49,146.51,187c-44,70.65-27.8,173.4,31.25,225.78,30,26.61,64,33.94,80.47,37.5,20.21,4.36,77.25,16.66,131.25-17.19,45.9-28.77,62.37-73.83,67.19-89.06" transform="translate(-111.46 -93.95)"/><line class="cls-2" x1="254.82" y1="100.26" x2="315.82" y2="100.26"/><line class="cls-2" x1="268.82" y1="12.81" x2="240.82" y2="72.81"/></svg>